<?xml version="1.0" encoding="utf-8"?>
<!-- Generator: Adobe Illustrator 21.0.0, SVG Export Plug-In . SVG Version: 6.00 Build 0)  -->
<svg version="1.1" id="Layer_1" xmlns="http://www.w3.org/2000/svg" xmlns:xlink="http://www.w3.org/1999/xlink" x="0px" y="0px"
	 viewBox="0 0 113 183" style="enable-background:new 0 0 113 183;" xml:space="preserve">
<style type="text/css">
	.st0{fill:#7F4E0D;stroke:#050505;stroke-miterlimit:10;}
	.st1{fill:#E5C9A5;stroke:#050505;stroke-miterlimit:10;}
	.st2{fill:#7F4E0D;}
	.st3{fill:none;stroke:#050505;stroke-miterlimit:10;}
	.st4{fill:#FFFFFF;stroke:#000000;stroke-miterlimit:10;}
	.st5{fill:none;stroke:#000000;stroke-linecap:round;stroke-linejoin:round;stroke-miterlimit:10;}
	.st6{fill:none;stroke:#050505;stroke-linecap:round;stroke-miterlimit:10;}
	.st7{stroke:#050505;stroke-miterlimit:10;}
	.st8{fill:#F9F985;stroke:#050505;stroke-linecap:round;stroke-miterlimit:10;}
	.st9{stroke:#050505;stroke-linecap:round;stroke-miterlimit:10;}
</style>
<g>
	<circle class="st0" cx="80.8" cy="49.8" r="5.8"/>
	<circle class="st1" cx="79.2" cy="50.3" r="4.2"/>
	<circle class="st0" cx="39.8" cy="47.8" r="5.8"/>
	<ellipse class="st1" cx="40.9" cy="48.5" rx="3.9" ry="4"/>
	<rect x="56.5" y="75.5" class="st0" width="6" height="6"/>
	<g>
		<path class="st1" d="M54.8,158.4c-0.7,1-3.5-0.4-4.5-1.2l-2.8-1.6c-1.1,1.6-2.6,3.9-3.2,4.7c-0.8,1-0.9,2.7-2.5,3.6
			c-1.8,1-1.6-1.7-3.6-1.9c-2.1-0.2-3-1.5-3.1-2.9l-1.2-0.6c-1-1.5,1.3-3.6,2.8-4.6l6.5-4.5c1.5-1,6.6-0.7,7.6,0.8l1.6,2.8
			c0,0-0.8,0.8,1.8,2.4C55.5,156,55.6,157.5,54.8,158.4z"/>
		<path class="st1" d="M41.7,154.5c-1.8,0.5-6,5-6,5"/>
		<path class="st1" d="M38.9,162.1c0,0,2.9-4.9,4.1-5.9"/>
	</g>
	<g>
		<path class="st0" d="M45.2,37.2c-2.3,10.2-3.8,19.3-3.7,28.5c0.1,3.4,3.5,7.5,7.3,8.7c7.3,2.2,14.5,3.5,21.6,3.5
			c3.9,0,7.8-4.4,8.1-8.6c0.6-10.2-0.4-20.1-2.5-30.8c-0.8-3.8-4-7.3-7.4-7.8c-5.6-0.8-11.1-1-16.4-0.3C49.1,30.7,46,33.9,45.2,37.2
			z"/>
		<path class="st0" d="M45.2,37.2c-2.3,10.2-3.8,19.3-3.7,28.5c0.1,3.4,3.4,7.7,7.3,8.7c9.2,2.5,16.3,3.7,21.6,3.5
			c3.9-0.2,7.8-4.4,8.1-8.6c0.6-10.2-0.4-20.1-2.5-30.8c-0.8-3.8-4-7.3-7.4-7.8c-5.6-0.8-11.1-1-16.4-0.3
			C49.1,30.7,46,33.9,45.2,37.2z"/>
	</g>
	<g>
		<path class="st1" d="M64.4,155.4c0.7,1,3.5-0.4,4.5-1.2l2.8-1.6c1.1,1.6,2.6,3.9,3.2,4.7c0.8,1,0.9,2.7,2.5,3.6
			c1.8,1,1.6-1.7,3.6-1.9c2.1-0.2,3-1.5,3.1-2.9l1.2-0.6c1-1.5-1.3-3.6-2.8-4.6l-6.5-4.5c-1.5-1-3.6-0.7-4.6,0.8l-0.5-0.1
			c-1.7-0.4-3.2,0.9-3.4,2.6c-0.1,0.9-0.7,1.9-2.4,2.7C63.7,152.8,63.6,154.5,64.4,155.4z"/>
		<path class="st1" d="M77.6,151.5c1.8,0.5,6,5,6,5"/>
		<path class="st1" d="M80.4,159.1c0,0-2.9-4.9-4.1-5.9"/>
	</g>
	<g>
		<path class="st2" d="M26.1,83.7c1.4,1.6,2.9,3.2,4.5,4.8c2.3,2.5,6,1.6,9.4,1c3.6-0.7,7.3-1.4,10.8-2.1c-0.1,3.1-0.4,6.2-0.9,9.3
			c-3.5,1.1-7,2.1-10.4,3.1c-3.5,1-7.2,0.1-9.9-2.5c-2.6-2.5-5.3-4.9-7.7-7.3C23.3,87.9,24.7,85.8,26.1,83.7z"/>
		<path class="st3" d="M26.1,83.7c1.4,1.6,2.9,3.2,4.5,4.8c2.3,2.5,6,1.6,9.4,1c3.6-0.7,7.3-1.4,10.8-2.1c-0.1,3.1-0.4,6.2-0.9,9.3
			c-3.5,1.1-7,2.1-10.4,3.1c-3.5,1-7.2,0.1-9.9-2.5c-2.6-2.5-5.3-4.9-7.7-7.3C23.3,87.9,24.7,85.8,26.1,83.7z"/>
	</g>
	<path class="st1" d="M74.8,55.7C73.3,71,67.7,77.8,55.6,75.9c-7.8-1.2-12.1-11.1-9.8-21c0.2-0.8,0.4-1.6,0.7-2.4c0,0,0,0,0,0
		c0.9-10.2,5.4-18.2,10.3-17.9c1.9,0.1,3.6,1.4,5,3.6c1.5-1.8,3.2-2.7,5-2.6C71.8,36,75.8,45,74.8,55.7z"/>
	<path class="st0" d="M78.7,124.8c0.3,3-2.2,6.4-5.2,7.9l2.5,13.8l-9,3l0.4-15.6c-5.3,0.6-10.4,0.5-15.7-0.3
		c0.3,5.9,0.2,11.8-0.6,17.7c-3,0-5.9-0.3-8.7-1c0.1-6,1.5-12.4,2.7-19.2c-2.6-2-4.6-5-4.5-7.5c0.4-10.6,2.7-22.2,5.8-34.3
		c1.2-4.3,5.5-8.6,9.7-9.2c1.7-0.2,3.4-0.4,5.1-0.4c3.4-0.2,6.8,2.3,8.6,5.8c0,0.1,0.1,0.1,0.1,0.2c0.2,0.6,1.1,2.4,1.4,2.7
		C78.1,97.1,81,112,81,112l-4.1-0.3C77.7,116.2,78.4,120.6,78.7,124.8z"/>
	<path class="st4" d="M69,86.5"/>
	<path class="st4" d="M69.9,85.6c0-0.1-0.1-0.1-0.1-0.2C69.9,85.4,69.9,85.5,69.9,85.6z"/>
	<path class="st4" d="M71,97.4"/>
	<path class="st1" d="M24.3,88.3c-3.3,3.9-5.5,1-7.8,0.5c-0.8-0.2-4.5-0.7-4.5-1.5c0-0.7,0.9-1.5,2.1-1.5c0.1,0,3,0.1,3.3,0.1
		c-0.2-0.1-1.1-0.8-1.8-1.3c-1-0.7-2.9-1.1-2.9-1.9c0-0.1,0-0.2,0.1-0.3c0.2-0.8,1.1-1.1,1.9-0.9c1.2,0.3,5.2,1.8,5.2,1.8
		c-0.1-0.1-2-2.1-2.7-2.6c-0.7-0.5-1.1-1.3-1.1-1.9c0-0.4,0.1-0.7,0.3-0.9c1.1-0.8,3.7,1.5,4.3,2l1.5,1.4c0,0,0.1-3.4-0.2-5.3
		c-0.1-0.8,0.6-1.6,1.5-1.6h0c0.8,0,1.6,1.1,1.6,2.4c0.1,2.4,1.8,6.9,1.9,7.1C27.7,85.4,26.3,86,24.3,88.3z"/>
	<path class="st5" d="M39.7,153.5"/>
	<path class="st3" d="M68.8,95.9c-0.5,4.1,3.9,11.7,4.9,15.8"/>
	<path class="st1" d="M55.3,91c-5.3,2.8-8.5,23-6,30c2.4,6.7,14.9,5.2,17.3,2.5c3.5-4-3-31.3-6.5-32.5S57.4,89.9,55.3,91z"/>
	<path class="st6" d="M49.7,63.3c0.7,7.3,14,9.7,18.7,4"/>
	<ellipse class="st7" cx="55.3" cy="50.8" rx="1.3" ry="1.2"/>
	<ellipse class="st7" cx="65.3" cy="51.8" rx="1.3" ry="1.2"/>
	<line class="st6" x1="58.1" y1="58.9" x2="57.9" y2="60.6"/>
	<line class="st6" x1="60.1" y1="59.1" x2="59.9" y2="60.9"/>
	<path class="st6" d="M60.7,108.1"/>
	<g>
		<path class="st8" d="M91.4,108.3c2.1,1.1-3.9,10.1-15.4,10.5c-11.5-0.5-17.1-9-15.4-10.4c0.5-0.4,8.4,3.2,16.2,3.3
			C84.6,111.6,90.8,108,91.4,108.3z"/>
		<path class="st6" d="M61.1,109c2.8,8.1,24.5,8.9,30.4-0.6"/>
		<path class="st9" d="M61.2,108c0,0-2.1,0.7-1.6,1.6S62.2,108.7,61.2,108z"/>
		<path class="st9" d="M91.3,108.2c0,0-2.7,1.9-1.4,2.6C91.1,111.5,93,108.5,91.3,108.2z"/>
	</g>
	<path class="st1" d="M72.4,114.6c0,0.9,2.2,1.6,2.5,2.5c0.5,1.5,1.9,1.5,3.3,0.9l2.7,0.1c1.4-0.5,3-2.1,2.4-3.4l-1.8-3.9
		c-0.6-1.2-2-1.9-3.3-1.5l-2.3,0.7c-1.2,0.4-1.6,0.6-2.2,1.6C73.6,111.6,72.4,114.1,72.4,114.6z"/>
</g>
</svg>
